# xmcd
#
# Track frame offsets:
#	150
#	19347
#	36501
#	52277
#	71093
#	89377
#	108434
#	124841
#	144214
#	160370
#	179567
#	196721
#	212497
#	231313
#	249597
#	268654
#	285061
#	304434
#	331840
#
# Disc length: 4430 seconds
#
# Revision: 1
# Processed by: cddbd v1.5.2PL0 Copyright (c) Steve Scherf et al.
# Submitted via: audiograbber 1.83.01
#
DISCID=1d114c13
DTITLE=Top Tunes Country Multiplex - TTM 105
DYEAR=1900
DGENRE=Karaoke
TTITLE0=Kellie Coffey - At The End Of The Day
TTITLE1=Faith Hill - Cry
TTITLE2=Brooks and Dunn - Every River
TTITLE3=Trisha Yearwood - I Don't Paint Myself Into Corners
TTITLE4=Brad Paisley - I Wish You'd Stay
TTITLE5=Trick Pony - Now Would Be The Time
TTITLE6=George Strait - Stars On The Water
TTITLE7=Tiff Merritt - Virginia, No One Can Warn You
TTITLE8=Toby Keith - Who's Your Daddy
TTITLE9=Kellie Coffey - At The End Of The Day (vocals)
TTITLE10=Faith Hill - Cry (vocals)
TTITLE11=Brooks and Dunn - Every River (vocals)
TTITLE12=Trisha Yearwood - I Don't Paint Myself Into Corners (vocals)
TTITLE13=Brad Paisley - I Wish You'd Stay (vocals)
TTITLE14=Trick Pony - Now Would Be The Time (vocals)
TTITLE15=George Strait - Stars On The Water (vocals)
TTITLE16=Tiff Merritt - Virginia, No One Can Warn You (vocals)
TTITLE17=Toby Keith - Who's Your Daddy (vocals)
TTITLE18=Top Tunes - Data Track
EXTD=
EXTT0=
EXTT1=
EXTT2=
EXTT3=
EXTT4=
EXTT5=
EXTT6=
EXTT7=
EXTT8=
EXTT9=
EXTT10=
EXTT11=
EXTT12=
EXTT13=
EXTT14=
EXTT15=
EXTT16=
EXTT17=
EXTT18=
PLAYORDER=
